<svg id="visual" viewBox="0 0 900 600" width="900" height="600" xmlns="http://www.w3.org/2000/svg" xmlns:xlink="http://www.w3.org/1999/xlink" version="1.1"><rect x="0" y="0" width="900" height="600" fill="#FF0066"></rect><g transform="translate(399.6752479218362 301.16472810933584)"><path d="M157.8 -185.5C217.2 -174 286.9 -144.9 296.3 -100.1C305.6 -55.2 254.6 5.5 226.5 67.9C198.4 130.4 193.2 194.6 159.3 207.1C125.4 219.5 62.7 180.1 -4.5 186.3C-71.7 192.5 -143.4 244.3 -168.9 229.1C-194.5 214 -173.8 131.9 -171.1 71.8C-168.3 11.6 -183.6 -26.5 -191.8 -81.3C-200.1 -136.1 -201.4 -207.6 -168.3 -227.7C-135.2 -247.7 -67.6 -216.4 -9.2 -203.7C49.2 -191 98.4 -197 157.8 -185.5" fill="#FAFF00"></path></g></svg>