<svg id="visual" viewBox="0 0 900 600" width="900" height="600" xmlns="http://www.w3.org/2000/svg" xmlns:xlink="http://www.w3.org/1999/xlink" version="1.1"><rect x="0" y="0" width="900" height="600" fill="#FF0066"></rect><g transform="translate(463.93782654050153 333.4942181046976)"><path d="M113.1 -163C153.7 -126.1 198.6 -102.6 204.2 -70C209.9 -37.3 176.3 4.5 161.1 52.6C145.9 100.7 149 155.1 125.3 180.2C101.5 205.4 50.7 201.2 1.7 198.9C-47.4 196.6 -94.8 196.2 -139.2 177.8C-183.6 159.4 -224.9 122.9 -231.7 80.4C-238.4 37.9 -210.5 -10.7 -194.2 -63.8C-178 -117 -173.3 -174.6 -142.9 -214.7C-112.5 -254.8 -56.2 -277.4 -10 -263.6C36.2 -249.9 72.5 -199.8 113.1 -163" fill="#FAFF00"></path></g></svg>