<svg id="visual" viewBox="0 0 960 360" width="960" height="360" xmlns="http://www.w3.org/2000/svg" xmlns:xlink="http://www.w3.org/1999/xlink" version="1.1"><path d="M0 209L22.8 213.5C45.7 218 91.3 227 137 235C182.7 243 228.3 250 274 245.8C319.7 241.7 365.3 226.3 411.2 222.5C457 218.7 503 226.3 548.8 234.2C594.7 242 640.3 250 686 246C731.7 242 777.3 226 823 220.7C868.7 215.3 914.3 220.7 937.2 223.3L960 226L960 361L937.2 361C914.3 361 868.7 361 823 361C777.3 361 731.7 361 686 361C640.3 361 594.7 361 548.8 361C503 361 457 361 411.2 361C365.3 361 319.7 361 274 361C228.3 361 182.7 361 137 361C91.3 361 45.7 361 22.8 361L0 361Z" fill="#ffe600"></path><path d="M0 235L22.8 240.2C45.7 245.3 91.3 255.7 137 260.2C182.7 264.7 228.3 263.3 274 266.3C319.7 269.3 365.3 276.7 411.2 280.8C457 285 503 286 548.8 278C594.7 270 640.3 253 686 248.2C731.7 243.3 777.3 250.7 823 253C868.7 255.3 914.3 252.7 937.2 251.3L960 250L960 361L937.2 361C914.3 361 868.7 361 823 361C777.3 361 731.7 361 686 361C640.3 361 594.7 361 548.8 361C503 361 457 361 411.2 361C365.3 361 319.7 361 274 361C228.3 361 182.7 361 137 361C91.3 361 45.7 361 22.8 361L0 361Z" fill="#cfde18"></path><path d="M0 284L22.8 285.2C45.7 286.3 91.3 288.7 137 288.2C182.7 287.7 228.3 284.3 274 281.8C319.7 279.3 365.3 277.7 411.2 279C457 280.3 503 284.7 548.8 285.2C594.7 285.7 640.3 282.3 686 284.2C731.7 286 777.3 293 823 291C868.7 289 914.3 278 937.2 272.5L960 267L960 361L937.2 361C914.3 361 868.7 361 823 361C777.3 361 731.7 361 686 361C640.3 361 594.7 361 548.8 361C503 361 457 361 411.2 361C365.3 361 319.7 361 274 361C228.3 361 182.7 361 137 361C91.3 361 45.7 361 22.8 361L0 361Z" fill="#a0d42e"></path><path d="M0 303L22.8 303.2C45.7 303.3 91.3 303.7 137 304.2C182.7 304.7 228.3 305.3 274 307.7C319.7 310 365.3 314 411.2 313.5C457 313 503 308 548.8 304.5C594.7 301 640.3 299 686 300.7C731.7 302.3 777.3 307.7 823 307.3C868.7 307 914.3 301 937.2 298L960 295L960 361L937.2 361C914.3 361 868.7 361 823 361C777.3 361 731.7 361 686 361C640.3 361 594.7 361 548.8 361C503 361 457 361 411.2 361C365.3 361 319.7 361 274 361C228.3 361 182.7 361 137 361C91.3 361 45.7 361 22.8 361L0 361Z" fill="#72c841"></path><path d="M0 338L22.8 335.5C45.7 333 91.3 328 137 328.3C182.7 328.7 228.3 334.3 274 334.7C319.7 335 365.3 330 411.2 327.8C457 325.7 503 326.3 548.8 327C594.7 327.7 640.3 328.3 686 326.5C731.7 324.7 777.3 320.3 823 319.5C868.7 318.7 914.3 321.3 937.2 322.7L960 324L960 361L937.2 361C914.3 361 868.7 361 823 361C777.3 361 731.7 361 686 361C640.3 361 594.7 361 548.8 361C503 361 457 361 411.2 361C365.3 361 319.7 361 274 361C228.3 361 182.7 361 137 361C91.3 361 45.7 361 22.8 361L0 361Z" fill="#3fba51"></path></svg>